<?xml version="1.0" encoding="utf-8"?>
<!-- Generator: Adobe Illustrator 26.5.0, SVG Export Plug-In . SVG Version: 6.00 Build 0)  -->
<svg version="1.1" id="Layer_1" xmlns="http://www.w3.org/2000/svg" xmlns:xlink="http://www.w3.org/1999/xlink" x="0px" y="0px"
	 viewBox="0 0 432 432" style="enable-background:new 0 0 432 432;" xml:space="preserve">
<style type="text/css">
	.st0{fill:#53BDB9;}
	.st1{fill:#904175;}
	.st2{fill:#B76384;}
	.st3{fill:#78CAB3;}
	.st4{fill:#A7D6A8;}
	.st5{fill:#DC8D6F;}
	.st6{fill:#D8D14B;}
	.st7{fill:#E2B94E;}
	.st8{fill:#BED977;}
</style>
<g>
	<path class="st0" d="M414,183c0,0.4,0,0.8,0,1.1c0,29.4,0,58.8,0,88.3c0,0.4,0,0.8,0,1.3c-2.7,0-5.4,0-8.2,0c0,8.3,0,16.5,0,24.8
		c-2.8,0-5.5,0-8.3,0c0,5.5,0,11,0,16.5c-2.8,0-5.5,0-8.3,0c0,5.5,0,11,0,16.5c-2.8,0-5.5,0-8.3,0c0,2.8,0,5.5,0,8.3
		c-2.8,0-5.5,0-8.3,0c0,2.8,0,5.5,0,8.3c-2.8,0-5.5,0-8.3,0c0,2.8,0,5.5,0,8.3c-2.8,0-5.5,0-8.3,0c0,2.8,0,5.5,0,8.3
		c-2.8,0-5.5,0-8.3,0c0,2.8,0,5.5,0,8.3c-2.8,0-5.5,0-8.2,0c0,2.8,0,5.4,0,8.2c-2.8,0-5.5,0-8.3,0c0,2.8,0,5.5,0,8.3
		c-5.5,0-11,0-16.5,0c0,2.8,0,5.5,0,8.3c-5.5,0-11,0-16.5,0c0,2.8,0,5.5,0,8.3c-5.6,0-11.1,0-16.5,0c0-2.7,0-5.5,0-8.2l0,0
		c2.7,0,5.5,0,8.3,0c0-2.9,0-5.5,0-8.2c2.7,0,5.5,0,8.3,0c0-2.9,0-5.6,0-8.3c5.5,0,10.9,0,16.5,0c0-2.8,0-5.5,0-8.2
		c2.8,0,5.5,0,8.3,0c0-2.8,0-5.5,0-8.3c5.5,0,11,0,16.5,0c0-2.8,0-5.4,0-8.2c2.8,0,5.5,0,8.2,0c0-2.8,0-5.5,0-8.3c2.8,0,5.5,0,8.2,0
		c0-2.8,0-5.4,0-8.2c2.8,0,5.5,0,8.2,0c0-5.5,0-11,0-16.5c2.8,0,5.5,0,8.2,0c0-2.8,0-5.4,0-8.2c2.8,0,5.5,0,8.2,0c0-5.5,0-11,0-16.5
		c2.8,0,5.5,0,8.3,0c0-5.5,0-11,0-16.5c2.8,0,5.4,0,8.2,0c0-11,0-21.9,0-33c2.8,0,5.5,0,8.2,0c0-0.5,0-0.9,0-1.3
		c0-18.4,0-36.8,0-55.3c0-3.1,0-6.3,0-9.4C408.5,183,411.2,183,414,183z"/>
	<path class="st1" d="M18,232.5c0-0.3,0-0.5,0-0.8c0-24.1,0-48.3,0-72.4c0-0.3,0-0.6,0-1c2.8,0,5.4,0,8.2,0c0-8.3,0-16.5,0-24.7
		c2.8,0,5.4,0,8.2,0c0-5.5,0-11,0-16.5c2.8,0,5.5,0,8.3,0c0-5.5,0-11,0-16.5c2.8,0,5.4,0,8.2,0c0-2.8,0-5.5,0-8.3c2.8,0,5.5,0,8.3,0
		c0-2.8,0-5.4,0-8.2c2.8,0,5.5,0,8.3,0c0-2.8,0-5.5,0-8.3c2.8,0,5.5,0,8.3,0c0-2.8,0-5.4,0-8.2c2.8,0,5.5,0,8.3,0c0-2.8,0-5.5,0-8.3
		c2.8,0,5.5,0,8.3,0c0-2.8,0-5.4,0-8.2c2.8,0,5.5,0,8.3,0c0-2.8,0-5.5,0-8.3c5.5,0,11,0,16.5,0c0-2.8,0-5.4,0-8.3c5.5,0,11,0,16.5,0
		c0,2.8,0,5.5,0,8.3c0,2.7,0,5.5,0,8.3c-5.6,0-11,0-16.6,0c0,2.8,0,5.5,0,8.3c-2.8,0-5.5,0-8.3,0c0,2.8,0,5.5,0,8.3
		c-5.5,0-11,0-16.5,0c0,2.8,0,5.5,0,8.3c-2.8,0-5.5,0-8.3,0c0,2.8,0,5.5,0,8.3c-2.8,0-5.5,0-8.2,0c0,2.8,0,5.4,0,8.2
		c-2.8,0-5.5,0-8.3,0c0,5.5,0,11,0,16.5c-2.8,0-5.5,0-8.3,0c0,2.8,0,5.5,0,8.3c-2.8,0-5.5,0-8.3,0c0,5.5,0,11,0,16.5
		c-2.8,0-5.5,0-8.3,0c0,5.5,0,11,0,16.5c-2.8,0-5.5,0-8.2,0c0,11,0,22,0,33c-2.8,0-5.5,0-8.2,0c0,0.5,0,0.9,0,1.4
		c0,15.6,0,31.2,0,46.8c0,0.4,0,0.9,0,1.3C23.5,232.5,20.8,232.5,18,232.5z"/>
	<path class="st2" d="M133.5,42.8c0-2.8,0-5.5,0-8.3c0,0,0,0,0,0c2.7,0,5.4,0,8.3,0c0-2.8,0-5.5,0-8.2c5.5,0,10.9,0,16.5,0
		c0-2.8,0-5.5,0-8.2c0.3,0,0.6-0.1,0.8-0.1c13.3,0,26.6,0,40,0c0.2,0,0.3,0,0.5,0c0,2.7,0,5.5,0,8.2c-5.5,0-11,0-16.6,0
		c0,2.9,0,5.6,0,8.3c-11,0-21.9,0-33,0c0,2.8,0,5.5,0,8.2C144.4,42.8,139,42.8,133.5,42.8z"/>
	<path class="st3" d="M414,183c-2.7,0-5.5,0-8.2,0c-2.7,0-5.5,0-8.3,0c0-11.1,0-22,0-33c-2.8,0-5.5,0-8.2,0c0-5.6,0-11,0-16.5
		c0-2.7,0-5.5,0-8.3c2.9,0,5.6,0,8.2,0c0,2.7,0,5.4,0,8.2c2.8,0,5.5,0,8.3,0c0,8.3,0,16.5,0,24.8c2.8,0,5.5,0,8.1,0
		c0.1,0.2,0.1,0.3,0.1,0.5C414,166.8,414,174.9,414,183z"/>
	<path class="st2" d="M18,232.5c2.7,0,5.5,0,8.2,0c0,5.5,0,11,0,16.5c2.9,0,5.6,0,8.3,0c0,11,0,21.9,0,33c2.8,0,5.5,0,8.2,0
		c0,2.8,0,5.5,0,8.2c-2.7,0-5.4,0-8.2,0c0,2.8,0,5.5,0,8.3c-2.7,0-5.4,0-8.2,0c0-8.3,0-16.4,0-24.7c-2.8,0-5.5,0-8.2,0
		c0-0.3-0.1-0.6-0.1-0.8c0-13.3,0-26.7,0-40C18,232.8,18,232.7,18,232.5z"/>
	<path class="st4" d="M397.5,125.3c-2.7,0-5.4,0-8.2,0c0,2.8,0,5.5,0,8.3c-2.7,0-5.5,0-8.3,0c0-5.6,0-11,0-16.5c-2.8,0-5.4,0-8.2,0
		c0-2.8,0-5.4,0-8.2c-2.8,0-5.5,0-8.3,0c0-5.6,0-11,0-16.5c0-2.8,0-5.5,0-8.3c2.7,0,5.4,0,8.2,0c0,2.8,0,5.5,0,8.2
		c2.8,0,5.4,0,8.2,0c0,2.8,0,5.5,0,8.3c2.8,0,5.5,0,8.3,0c0,5.5,0,11,0,16.5c2.8,0,5.5,0,8.3,0C397.5,119.8,397.5,122.5,397.5,125.3
		z"/>
	<path class="st5" d="M34.5,298.5c0-2.7,0-5.4,0-8.3c2.8,0,5.5,0,8.2,0c0,2.7,0,5.5,0,8.3c2.9,0,5.6,0,8.3,0c0,5.5,0,11,0,16.5
		c2.8,0,5.4,0,8.2,0c0,2.8,0,5.4,0,8.2c2.8,0,5.5,0,8.2,0c0,2.8,0,5.5,0,8.2c-2.7,0-5.4,0-8.2,0c0,2.8,0,5.6,0,8.3
		c-2.7,0-5.4,0-8.2,0c0-2.8,0-5.4,0-8.2c-2.8,0-5.5,0-8.3,0c0-5.6,0-11,0-16.5c-2.8,0-5.4,0-8.3,0C34.5,309.5,34.5,304,34.5,298.5z"
		/>
	<path class="st6" d="M133.5,397.5c-5.5,0-10.9,0-16.4,0c0-2.8,0-5.4,0-8.2c-5.5,0-11,0-16.5,0c0-2.8,0-5.5,0-8.3
		c-2.8,0-5.4,0-8.3,0c0-2.8,0-5.5,0-8.3c0-2.8,0-5.5,0-8.3c5.5,0,11,0,16.5,0c0,2.8,0,5.5,0,8.3c2.8,0,5.4,0,8.2,0
		c0,2.8,0,5.4,0,8.2c5.5,0,11,0,16.5,0c0,2.8,0,5.5,0,8.2C133.5,392,133.5,394.8,133.5,397.5z"/>
	<path class="st6" d="M290.3,26.3c2.7,0,5.4,0,8.2,0c0,2.7,0,5.4,0,8.2c5.5,0,10.9,0,16.5,0c0,2.8,0,5.5,0,8.2c5.5,0,10.9,0,16.5,0
		c0,2.8,0,5.5,0,8.3c0,2.7,0,5.5,0,8.3c-2.9,0-5.6,0-8.3,0c-2.7,0-5.5,0-8.3,0c0-2.8,0-5.5,0-8.3c-5.5,0-11,0-16.5,0
		c0-2.8,0-5.5,0-8.3c-2.8,0-5.5,0-8.2,0C290.3,37.2,290.3,31.8,290.3,26.3z"/>
	<path class="st3" d="M282,397.5c0,2.7,0,5.5,0,8.2c-2.7,0-5.4,0-8.2,0c0,2.8,0,5.5,0,8.2c-0.4,0-0.6,0.1-0.9,0.1
		c-16.1,0-32.2,0-48.2,0c-0.1,0-0.3,0-0.4,0c0-2.7,0-5.5,0-8.2c8.2,0,16.5,0,24.8,0c0-2.8,0-5.5,0-8.3c0.5,0,0.9,0,1.3,0
		C260.9,397.5,271.4,397.5,282,397.5z"/>
	<path class="st7" d="M290.3,26.3c0,5.5,0,11,0,16.4c-2.7,0-5.5,0-8.3,0c0-2.8,0-5.5,0-8.3c-11,0-22,0-33,0c0-2.8,0-5.5,0-8.2
		c0-2.7,0-5.5,0-8.2c8.2,0,16.4,0,24.7,0c0,2.7,0,5.4,0,8.3C279.3,26.3,284.8,26.3,290.3,26.3z"/>
	<path class="st8" d="M323.2,59.3c2.7,0,5.4,0,8.3,0c0-2.8,0-5.6,0-8.3c2.7,0,5.4,0,8.2,0c0,2.8,0,5.4,0,8.2c2.8,0,5.5,0,8.3,0
		c0,2.8,0,5.5,0,8.3c2.8,0,5.4,0,8.2,0c0,2.8,0,5.5,0,8.2c2.8,0,5.4,0,8.3,0c0,2.8,0,5.5,0,8.3c0,2.8,0,5.5,0,8.3
		c-2.7,0-5.5,0-8.3,0c0-2.8,0-5.5,0-8.3c-2.8,0-5.5,0-8.2,0c0-2.8,0-5.4,0-8.2c-2.8,0-5.4,0-8.2,0c0-2.8,0-5.5,0-8.3
		c-5.5,0-11,0-16.5,0C323.2,64.7,323.2,62,323.2,59.3z"/>
	<path class="st8" d="M133.5,397.5c0-2.8,0-5.5,0-8.3c5.5,0,11,0,16.5,0c0,2.8,0,5.5,0,8.3c0.5,0,1,0,1.4,0c7.8,0,15.5,0,23.3,0
		c0,5.5,0,11,0,16.4c-5.5,0-10.9,0-16.5,0c0-2.7,0-5.4,0-8.2c-8.3,0-16.4,0-24.8,0C133.5,403,133.5,400.2,133.5,397.5z"/>
	<path class="st7" d="M92.3,364.5c0,2.8,0,5.5,0,8.3c-2.7,0-5.4,0-8.2,0c0-2.8,0-5.4,0-8.2c-2.8,0-5.5,0-8.3,0c0-2.8,0-5.5,0-8.3
		c-2.8,0-5.5,0-8.2,0c0-2.8,0-5.5,0-8.2c-2.8,0-5.5,0-8.3,0c0-2.8,0-5.5,0-8.3c0-2.7,0-5.4,0-8.3c2.8,0,5.5,0,8.2,0
		c0,2.7,0,5.5,0,8.3c2.9,0,5.5,0,8.3,0c0,2.8,0,5.5,0,8.2c2.8,0,5.4,0,8.2,0c0,2.8,0,5.4,0,8.2c2.8,0,5.5,0,8.3,0
		C92.3,359.1,92.3,361.8,92.3,364.5z"/>
	<path class="st4" d="M174.7,414c0-5.5,0-11,0-16.4c2.7,0,5.5,0,8.3,0c0,2.8,0,5.5,0,8.2c0.5,0,0.8,0,1.2,0c12.2,0,24.3,0,36.5,0
		c1.2,0,2.3,0,3.5,0c0,2.7,0,5.5,0,8.2c-0.4,0-0.9,0-1.3,0c-15.6,0-31.2,0-46.8,0C175.6,414,175.2,414,174.7,414z"/>
	<path class="st5" d="M249,18c0,2.7,0,5.5,0,8.2c-16,0-32.1,0-48.1,0c-0.4,0-0.9,0-1.3,0c0-2.7,0-5.5,0-8.2c0.3,0,0.5,0,0.8,0
		c16,0,31.9,0,47.9,0C248.5,18,248.7,18,249,18z"/>
	<path class="st1" d="M141.7,26.3c0,2.7,0,5.4,0,8.2c-2.8,0-5.5,0-8.3,0c0-2.7,0-5.4,0-8.2C136.3,26.3,139,26.3,141.7,26.3z"/>
	<path class="st3" d="M282,397.5c0-2.7,0-5.4,0-8.2c2.8,0,5.5,0,8.3,0c0,2.7,0,5.4,0,8.2C287.4,397.5,284.7,397.5,282,397.5z"/>
	<path class="st6" d="M257.3,92.2c2.7,0,5.4,0,8.3,0c0,22.1,0,44,0,66c0,5.5,0,11,0,16.6c-2.9,0-5.5,0-8.3,0c0,2.8,0,5.4,0,8.2
		c-2.8,0-5.4,0-8.2,0c0,5.5,0,10.9,0,16.5c-2.8,0-5.4,0-8.2,0c0,5.5,0,10.9,0,16.5c-2.8,0-5.5,0-8.3,0c0,2.8,0,5.5,0,8.3
		c-2.8,0-5.4,0-8.2,0c0,5.5,0,10.9,0,16.5c-2.8,0-5.4,0-8.2,0c0,5.5,0,10.9,0,16.5c-2.8,0-5.4,0-8.2,0c0,2.8,0,5.4,0,8.2
		c-2.8,0-5.4,0-8.3,0c0,5.6,0,11,0,16.6c-2.8,0-5.5,0-8.2,0c0,2.8,0,5.5,0,8.2c-2.7,0-5.4,0-8.2,0c0,2.8,0,5.5,0,8.3
		c-5.5,0-11,0-16.5,0c0,2.8,0,5.4,0,8.2c-8.3,0-16.4,0-24.7,0c0,2.8,0,5.5,0,8.3c-5.6,0-11.1,0-16.5,0c0-2.7,0-5.4,0-8.2
		c2.8,0,5.5,0,8.3,0c0-5.5,0-10.9,0-16.5c2.8,0,5.5,0,8.3,0c0-2.8,0-5.5,0-8.3c2.8,0,5.4,0,8.2,0c0-5.5,0-10.9,0-16.5
		c2.8,0,5.4,0,8.2,0c0-5.5,0-10.9,0-16.5c2.8,0,5.4,0,8.3,0c0-5.6,0-11,0-16.6c2.8,0,5.5,0,8.3,0c0-2.8,0-5.4,0-8.2
		c2.8,0,5.4,0,8.2,0c0-5.5,0-10.9,0-16.5c2.8,0,5.4,0,8.2,0c0-5.5,0-10.9,0-16.5c2.8,0,5.4,0,8.3,0c0-2.8,0-5.5,0-8.3
		c2.8,0,5.5,0,8.3,0c0-5.5,0-10.9,0-16.5c2.8,0,5.4,0,8.2,0c0-5.5,0-10.9,0-16.5c2.8,0,5.4,0,8.2,0c0-2.8,0-5.4,0-8.2
		c2.8,0,5.4,0,8.3,0c0-5.6,0-11,0-16.6c2.8,0,5.5,0,8.3,0c0-5.5,0-10.9,0-16.5c2.8,0,5.4,0,8.2,0c0-2.8,0-5.4,0-8.2
		c2.8,0,5.4,0,8.2,0C257.3,97.6,257.3,94.9,257.3,92.2z"/>
	<path class="st7" d="M257.3,92.2c0,2.7,0,5.4,0,8.2c-2.8,0-5.4,0-8.2,0c0,2.8,0,5.4,0,8.2c-2.8,0-5.4,0-8.2,0c0,5.5,0,10.9,0,16.5
		c-2.8,0-5.4,0-8.3,0c0,5.6,0,11,0,16.6c-2.8,0-5.5,0-8.3,0c0,2.8,0,5.4,0,8.2c-2.8,0-5.4,0-8.2,0c0,5.5,0,10.9,0,16.5
		c-2.8,0-5.4,0-8.2,0c0,5.5,0,10.9,0,16.5c-2.8,0-5.4,0-8.3,0c0,2.8,0,5.5,0,8.3c-2.8,0-5.5,0-8.3,0c0,5.5,0,10.9,0,16.5
		c-2.8,0-5.4,0-8.2,0c0,5.5,0,10.9,0,16.5c-2.8,0-5.4,0-8.2,0c0,2.8,0,5.4,0,8.2c-2.8,0-5.4,0-8.3,0c0,5.6,0,11,0,16.6
		c-2.8,0-5.5,0-8.3,0c0,5.5,0,10.9,0,16.5c-2.8,0-5.4,0-8.2,0c0,5.5,0,10.9,0,16.5c-2.8,0-5.4,0-8.2,0c0,2.8,0,5.4,0,8.3
		c-2.8,0-5.5,0-8.3,0c0,5.6,0,11,0,16.5c-2.8,0-5.4,0-8.3,0c0,2.8,0,5.5,0,8.2c-4.3,0-8.5,0-12.8,0c-6.3,0-12.6,0-19,0
		c-0.4,0-0.7,0-1.2,0c0-2.8,0-5.4,0-8.2c2.7,0,5.4,0,8.1,0c0-5.5,0-11,0-16.5c2.8,0,5.5,0,8.3,0c0-2.8,0-5.5,0-8.3
		c2.8,0,5.4,0,8.2,0c0-5.5,0-11,0-16.5c2.8,0,5.5,0,8.3,0c0-5.5,0-11,0-16.5c2.8,0,5.4,0,8.2,0c0-5.5,0-11,0-16.5c2.8,0,5.5,0,8.2,0
		c0-5.5,0-11,0-16.5c-2.7,0-5.4,0-8.2,0c0-2.8,0-5.5,0-8.3c2.7,0,5.5,0,8.3,0c0-5.6,0-11,0-16.6c2.8,0,5.4,0,8.2,0
		c0-5.5,0-10.9,0-16.5c2.8,0,5.5,0,8.3,0c0-2.8,0-5.5,0-8.3c2.8,0,5.4,0,8.2,0c0-5.5,0-10.9,0-16.5c2.8,0,5.5,0,8.2,0
		c5.5,0,10.9,0,16.5,0c0-5.5,0-10.9,0-16.4c2.8,0,5.4,0,8.2,0c0-5.5,0-10.9,0-16.5c2.8,0,5.5,0,8.3,0c0-2.8,0-5.5,0-8.3
		c2.8,0,5.5,0,8.2,0c0-5.5,0-10.9,0-16.5c2.8,0,5.5,0,8.2,0c0-2.8,0-5.5,0-8.3c2.8,0,5.5,0,8.2,0c0-2.8,0-5.4,0-8.2
		c2.8,0,5.5,0,8.2,0c0-2.8,0-5.5,0-8.3c2.8,0,5.5,0,8.2,0c0-2.8,0-5.4,0-8.2c2.8,0,5.5,0,8.3,0C257.3,70.3,257.3,81.3,257.3,92.2z"
		/>
	<path class="st8" d="M191.3,290.2c0-2.7,0-5.4,0-8.2c2.7,0,5.4,0,8.2,0c0-5.6,0-11,0-16.6c2.8,0,5.5,0,8.3,0c0-2.8,0-5.4,0-8.2
		c2.8,0,5.4,0,8.2,0c0-5.5,0-10.9,0-16.5c2.8,0,5.4,0,8.2,0c0-5.5,0-10.9,0-16.5c2.8,0,5.4,0,8.2,0c0-2.8,0-5.4,0-8.3
		c2.8,0,5.5,0,8.3,0c0-5.6,0-11,0-16.5c2.8,0,5.4,0,8.2,0c0-5.5,0-10.9,0-16.5c2.8,0,5.4,0,8.2,0c0-2.8,0-5.4,0-8.2
		c2.8,0,5.4,0,8.3,0c0-5.6,0-11.1,0-16.6c2.7,0,5.4,0,8.2,0c0,2.8,0,5.5,0,8.2c5.5,0,11,0,16.5,0c0,2.8,0,5.5,0,8.3
		c5.6,0,11,0,16.5,0c0,5.5,0,10.9,0,16.5c-2.8,0-5.5,0-8.3,0c0,2.8,0,5.5,0,8.3c-2.8,0-5.5,0-8.3,0c0,5.5,0,10.9,0,16.5
		c-2.8,0-5.4,0-8.2,0c0,5.5,0,10.9,0,16.5c-2.8,0-5.4,0-8.3,0c0,2.8,0,5.5,0,8.3c-2.8,0-5.5,0-8.3,0c0,5.5,0,10.9,0,16.5
		c-2.8,0-5.4,0-8.2,0c0,5.5,0,10.9,0,16.5c-2.8,0-5.4,0-8.3,0c0,2.8,0,5.5,0,8.3c-2.8,0-5.5,0-8.3,0c0,5.5,0,10.9,0,16.5
		c-2.8,0-5.4,0-8.2,0c0,5.6,0,11,0,16.5c-2.7,0-5.4,0-8.2,0c0-2.8,0-5.5,0-8.2c-2.8,0-5.4,0-8.2,0c0-2.8,0-5.4,0-8.2
		c-2.8,0-5.5,0-8.3,0c0-2.8,0-5.5,0-8.3C202.2,290.2,196.7,290.2,191.3,290.2z"/>
	<path class="st4" d="M232.5,315c0-5.5,0-10.9,0-16.5c2.8,0,5.4,0,8.2,0c0-5.5,0-10.9,0-16.5c2.8,0,5.4,0,8.3,0c0-2.8,0-5.5,0-8.3
		c2.8,0,5.5,0,8.3,0c0-5.5,0-10.9,0-16.5c2.8,0,5.4,0,8.2,0c0-5.5,0-10.9,0-16.5c2.8,0,5.4,0,8.3,0c0-2.8,0-5.5,0-8.3
		c2.8,0,5.5,0,8.3,0c0-5.5,0-10.9,0-16.5c2.8,0,5.4,0,8.2,0c0-5.5,0-10.9,0-16.5c2.8,0,5.4,0,8.3,0c0-2.8,0-5.5,0-8.3
		c2.8,0,5.5,0,8.3,0c0-5.6,0-11,0-16.5c2.7,0,5.4,0,8.2,0c0,2.7,0,5.4,0,8.2c5.5,0,11,0,16.5,0c0,2.8,0,5.4,0,8.2
		c8.3,0,16.4,0,24.8,0c0,2.8,0,5.6,0,8.3c-2.7,0-5.5,0-8.3,0c0,2.9,0,5.5,0,8.3c-2.8,0-5.4,0-8.2,0c0,5.6,0,11,0,16.5c0,0,0,0,0,0
		c-2.7,0-5.5,0-8.3,0c0,2.9,0,5.5,0,8.2c-2.7,0-5.4,0-8.2,0c0,2.8,0,5.5,0,8.3c-5.5,0-11,0-16.5,0c0,2.8,0,5.4,0,8.2
		c-2.8,0-5.4,0-8.2,0c0,2.8,0,5.5,0,8.3c-5.5,0-11,0-16.5,0c0,0.5,0,0.9,0,1.3c0,21.2,0,42.3,0,63.5c0,0.4,0,0.8,0,1.2
		c-2.7,0-5.4,0-8.2,0c0,5.6,0,11,0,16.5c-2.8,0-5.5,0-8.2,0c0,2.8,0,5.5,0,8.2c-2.7,0-5.4,0-8.2,0c0-2.8,0-5.5,0-8.3
		c-2.8,0-5.5,0-8.3,0c0-2.8,0-5.5,0-8.2c-2.8,0-5.4,0-8.2,0c0-2.7,0-5.4,0-8.2c-2.8,0-5.5,0-8.3,0
		C232.5,320.5,232.5,317.7,232.5,315z"/>
	<path class="st5" d="M174.8,150c-2.7,0-5.4,0-8.2,0c0,5.5,0,11,0,16.5c-2.8,0-5.4,0-8.2,0c0,2.8,0,5.4,0,8.3c-2.8,0-5.5,0-8.3,0
		c0,5.6,0,11,0,16.5c-2.8,0-5.4,0-8.2,0c0,5.5,0,10.9,0,16.6c-2.8,0-5.6,0-8.3,0c-2.7,0-5.4,0-8.2,0c0-2.8,0-5.5,0-8.2
		c-2.8,0-5.4,0-8.2,0c0-5.5,0-10.9,0-16.5c-2.8,0-5.5,0-8.3,0c0-2.8,0-5.6,0-8.3c0-2.7,0-5.5,0-8.3c2.9,0,5.5,0,8.3,0
		c0-5.5,0-11,0-16.5c2.8,0,5.5,0,8.2,0c0-2.8,0-5.5,0-8.2c16.4,0,32.9,0,49.5,0C174.8,144.5,174.8,147.2,174.8,150z"/>
	<path class="st2" d="M125.3,141.7c0,2.7,0,5.4,0,8.2c-2.8,0-5.4,0-8.2,0c0,5.5,0,11,0,16.5c-2.8,0-5.5,0-8.3,0c0,2.8,0,5.6,0,8.3
		c-2.7,0-5.4,0-8.2,0c0-2.8,0-5.4,0-8.2c-2.8,0-5.5,0-8.3,0c0-2.8,0-5.5,0-8.3c-2.8,0-5.4,0-8.2,0c0-5.5,0-11,0-16.5
		c-2.8,0-5.5,0-8.2,0c0-2.8,0-5.4,0-8.2c16.4,0,32.9,0,49.5,0C125.3,136.3,125.3,139,125.3,141.7z"/>
	<path class="st3" d="M339.8,224.3c0-5.5,0-10.9,0-16.5c2.8,0,5.4,0,8.2,0c0-2.8,0-5.4,0-8.3c2.9,0,5.6,0,8.3,0c5.5,0,10.9,0,16.4,0
		c0,2.8,0,5.5,0,8.3c-2.7,0-5.4,0-8.2,0c0,2.8,0,5.4,0,8.2c-5.5,0-10.9,0-16.5,0c0,2.8,0,5.5,0,8.3
		C345.2,224.3,342.5,224.3,339.8,224.3z"/>
	<path class="st3" d="M265.5,348c0-2.7,0-5.4,0-8.2c2.8,0,5.4,0,8.2,0c0-5.5,0-11,0-16.5c2.8,0,5.5,0,8.2,0c0,1.2,0,2.4,0,3.6
		c0,12.1,0,24.3,0,36.4c0,0.4,0,0.7,0,1.2c-2.8,0-5.4,0-8.2,0c0-2.7,0-5.4,0-8.2c-2.8,0-5.4,0-8.3,0
		C265.5,353.5,265.5,350.8,265.5,348z"/>
	<path class="st3" d="M331.5,232.5c0-2.7,0-5.4,0-8.2c2.8,0,5.5,0,8.3,0c0,2.7,0,5.4,0,8.2C337,232.5,334.2,232.5,331.5,232.5z"/>
</g>
</svg>
